<?xml version="1.0" encoding="utf-8"?>
<!-- Generator: Adobe Illustrator 25.4.1, SVG Export Plug-In . SVG Version: 6.00 Build 0)  -->
<svg version="1.1" xmlns="http://www.w3.org/2000/svg" xmlns:xlink="http://www.w3.org/1999/xlink" x="0px" y="0px" width="32px"
	 height="32px" viewBox="0 0 32 32" enable-background="new 0 0 32 32" xml:space="preserve">
<g id="Layer_1">
	<g>
		<g>
			<path d="M14.9706,3.4383c-2.1639-0.6693-4.939-1.2671-6.6864,0.6478C7.5839,4.8535,7.1418,6.047,7.9451,6.91
				c0.8399,0.9022,2.0815,0.6449,3.1798,0.6947c2.0523,0.093,5.7537,1.1397,5.1006,3.8834
				c-0.6173,2.5933-3.9275,2.9127-6.0865,2.6294c-1.4449-0.1896-2.6767-0.7603-3.7036-1.797
				C5.3687,11.2436,4.5505,9.9391,3.719,8.6806C3.1891,7.8787,1.8896,8.6291,2.4238,9.4377
				c1.381,2.0901,2.8368,4.5156,5.2348,5.5534c2.2227,0.9619,5.2387,1.0665,7.427-0.0402c2.0719-1.0478,3.4265-3.5494,2.3211-5.7763
				c-1.0884-2.1927-4.1619-2.9975-6.4006-3.074c-0.3938-0.0135-1.792,0.2351-1.9911-0.2481
				c-0.1998-0.4847,0.7849-1.1221,1.1184-1.2812c1.4093-0.672,3.0455-0.1173,4.4385,0.3135
				C15.4961,5.1706,15.8914,3.7231,14.9706,3.4383L14.9706,3.4383z"/>
		</g>
	</g>
	<g>
		<g>
			<path d="M17.9679,16.1213c0.4173,3.4605,0.4773,6.9508,0.1794,10.4236c-0.0825,0.9617,1.418,0.9562,1.5,0
				c0.298-3.4728,0.2379-6.9631-0.1794-10.4236c-0.0489-0.4053-0.3098-0.7454-0.75-0.75
				C18.3499,15.3674,17.9194,15.7193,17.9679,16.1213L17.9679,16.1213z"/>
		</g>
	</g>
	<g display="none">
		<g display="inline">
			<path d="M18.0398,16.8491c2.067-0.0898,4.0934-0.0923,5.9518,0.9312c1.4844,0.8175,3.0239,2.2582,3.5009,3.9364
				c0.6106,2.1484-2.6401,3.0411-4.0958,3.5491c-2.1213,0.7403-4.306,1.2791-6.5249,1.629
				c-0.9508,0.1499-0.5471,1.5956,0.3988,1.4464c2.004-0.316,3.9804-0.7851,5.9077-1.4198c1.712-0.5637,3.8787-1.151,5.0694-2.6005
				c2.4488-2.981-1.3123-6.8162-3.9624-8.0734c-1.9902-0.9442-4.0822-0.9924-6.2455-0.8985
				C17.0782,15.3909,17.073,16.8911,18.0398,16.8491L18.0398,16.8491z"/>
		</g>
	</g>
	<g>
		<g>
			<path d="M16.4342,17.3682c2.551-0.8092,5.3966-0.728,7.8327,0.4384c1.0194,0.4881,2.0587,1.207,2.5536,2.2598
				c0.5945,1.2647,0.1221,2.6897-0.531,3.8299c-1.2428,2.1694-3.3629,3.5294-5.8575,3.6949c-3.0139,0.2-6.0783,0.0771-9.0985,0.101
				c-0.9648,0.0077-0.967,1.5077,0,1.5c2.875-0.0228,5.7613,0.0268,8.6344-0.0791c2.3596-0.087,4.4925-0.8497,6.17-2.5537
				c1.5334-1.5577,2.829-3.934,2.3611-6.1785c-0.4393-2.1072-2.3834-3.4594-4.2596-4.2098c-2.6028-1.041-5.5411-1.094-8.2038-0.2493
				C15.1187,16.2127,15.5104,17.6613,16.4342,17.3682L16.4342,17.3682z"/>
		</g>
	</g>
	<g>
		<g>
			<path d="M20.3526,12.3816c1.4057-0.3281,2.3197-1.3418,2.836-2.6408c0.223-0.5611,0.4745-0.9945,1.0686-1.2091
				c0.7085-0.256,1.4956-0.1585,2.2288-0.092c-0.1262-0.4659-0.2524-0.9317-0.3785-1.3976
				c-0.6032,0.3077-1.2052,0.6294-1.5437,1.2473c-0.3298,0.6018-0.4064,1.3598-0.1712,2.0079
				c0.2271,0.6256,0.6883,1.1679,1.2836,1.4736c0.6941,0.3564,1.4674,0.3587,2.2292,0.3989c0.9647,0.0509,0.9619-1.4492,0-1.5
				c-0.7339-0.0387-1.7497,0.0192-2.0817-0.8111c-0.3307-0.8271,0.4298-1.2097,1.0409-1.5213
				c0.293-0.1494,0.4289-0.5407,0.3447-0.847c-0.0927-0.3373-0.3913-0.5205-0.7232-0.5506
				c-1.5278-0.1386-3.2603-0.0877-4.2245,1.3053c-0.3909,0.5648-0.4883,1.2846-0.9115,1.8298
				c-0.3496,0.4504-0.8478,0.7324-1.396,0.8604C19.0141,11.1545,19.4119,12.6011,20.3526,12.3816L20.3526,12.3816z"/>
		</g>
	</g>
	<g>
		<g>
			<path d="M13.6412,23.1385c-0.5449-0.1272-1.0336-0.4047-1.3851-0.8478c-0.433-0.5459-0.5248-1.2751-0.9224-1.8423
				c-0.9741-1.3897-2.6886-1.4447-4.2245-1.3053c-0.3329,0.0302-0.6302,0.2121-0.7232,0.5506
				c-0.0843,0.3069,0.0514,0.6974,0.3447,0.847c0.5991,0.3056,1.3849,0.7013,1.0409,1.5213
				c-0.3478,0.829-1.3342,0.7717-2.0817,0.8111c-0.9603,0.0507-0.9663,1.551,0,1.5c0.7422-0.0392,1.4989-0.0401,2.1804-0.3738
				c0.6175-0.3023,1.0995-0.8553,1.3324-1.4987c0.2303-0.6364,0.1581-1.3612-0.1468-1.9592
				c-0.3296-0.6465-0.9488-0.98-1.5681-1.2959c-0.1262,0.4659-0.2524,0.9317-0.3785,1.3976
				c0.7193-0.0653,1.4715-0.1516,2.1719,0.0725c0.6252,0.2,0.8946,0.6477,1.1254,1.2286c0.5162,1.2989,1.4302,2.3127,2.8359,2.6408
				C14.1816,24.8041,14.5824,23.3582,13.6412,23.1385L13.6412,23.1385z"/>
		</g>
	</g>
</g>
<g id="Layer_2" display="none">
	<g display="inline">
		<g>
			<path d="M14.4206,6.1219C12.4733,5.1532,10.176,4.5661,8.062,5.3712c-0.8752,0.3333-1.7812,0.9163-1.832,1.9512
				C6.1816,8.3061,6.893,9.1222,7.7601,9.4838c1.0178,0.4244,2.215,0.4061,3.2887,0.6305c0.4466,0.0934,0.9323,0.177,1.3363,0.3991
				c0.487,0.2676,0.7435,0.762,0.9115,1.2749c0.6414,1.9578-0.25,4.068-1.9965,5.103c-0.4759,0.2821-1.0282,0.5194-1.5829,0.582
				c-0.6197,0.07-1.15-0.2157-1.6434-0.5569c-1.0741-0.7428-1.9994-1.7464-2.9552-2.6312c-0.7076-0.655-1.7709,0.4032-1.0607,1.0607
				c0.8599,0.796,1.6957,1.6353,2.6074,2.3723c0.8143,0.6582,1.7342,1.2615,2.8199,1.2663
				c1.9267,0.0084,3.8574-1.3977,4.7753-3.0252c0.9938-1.7621,1.0594-4.2422-0.1798-5.9117
				c-0.6386-0.8603-1.6266-1.1693-2.6335-1.3795c-0.5307-0.1108-1.0649-0.2001-1.6022-0.2722
				C9.3001,8.3226,8.6308,8.3172,8.1507,8.0167C6.7837,7.1612,9.1635,6.5583,9.7948,6.5085
				c1.3556-0.1069,2.6684,0.3115,3.8688,0.9086C14.5252,7.8457,15.2859,6.5523,14.4206,6.1219L14.4206,6.1219z"/>
		</g>
	</g>
</g>
</svg>
